<svg version="1.1" xmlns="http://www.w3.org/2000/svg" xmlns:xlink="http://www.w3.org/1999/xlink" width="844.0931" height="796.96859" viewBox="0,0,844.0931,796.96859"><g transform="translate(148.38739,272.39502)"><g data-paper-data="{&quot;isPaintingLayer&quot;:true}" fill-rule="nonzero" stroke-linecap="butt" stroke-linejoin="miter" stroke-miterlimit="10" stroke-dasharray="" stroke-dashoffset="0" style="mix-blend-mode: normal"><path d="M-119.60961,363.93393v-385.88589h43.54354v385.88589z" fill="#000000" stroke="#000000" stroke-width="2"/><path d="M-47.53754,371.44143v-34.53453h545.04505v34.53453z" fill="#000000" stroke="#000000" stroke-width="2"/><path d="M562.07207,372.94294v-384.38438h30.03003v384.38438z" fill="#000000" stroke="#000000" stroke-width="2"/><path d="M-108.72372,419.10185v-82.58258h687.68769v82.58258z" fill="#000000" stroke="#000000" stroke-width="2"/><path d="M38.42342,345.52827v-96.0961h57.05706v96.0961z" fill="#000000" stroke="#000000" stroke-width="2"/><path d="M322.20721,402.58534v-222.22222h31.53153v222.22222z" fill="#000000" stroke="#000000" stroke-width="2"/><path d="M355.24024,109.79253v-40.54054h130.63063v40.54054z" fill="#000000" stroke="#000000" stroke-width="2"/><path d="M26.41141,109.79253v-40.54054h34.53453v40.54054z" fill="#000000" stroke="#000000" stroke-width="2"/><path d="M158.54354,141.32408v-24.02402h13.51351v24.02402z" fill="#000000" stroke="#000000" stroke-width="2"/><path d="M62.44745,205.88864v-4.5045h12.01201v4.5045z" fill="#000000" stroke="#000000" stroke-width="2"/><path d="M-89.2042,363.54628v-178.67868h58.55856v178.67868z" fill="#000000" stroke="#000000" stroke-width="2"/><path d="M482.86787,354.53728v-130.63063h31.53153v130.63063z" fill="#000000" stroke="#000000" stroke-width="2"/><path d="M407.79279,160.74322v-7.50751h15.01502v7.50751z" fill="#000000" stroke="#000000" stroke-width="2"/><path d="M262.14715,34.61709v-7.50751h10.51051v7.50751z" fill="#000000" stroke="#000000" stroke-width="2"/><path d="M182.56757,34.61709v-7.50751h13.51351v7.50751z" fill="#000000" stroke="#000000" stroke-width="2"/><path d="M185.57057,309.39187v-6.00601h12.01201v6.00601z" fill="#000000" stroke="#000000" stroke-width="2"/><path d="M-121.86186,523.57356v-70.57057h752.25226v70.57057z" fill="#000000" stroke="#000000" stroke-width="2"/><path d="M-7.74775,-47.6713v-223.72372h495.4955v223.72373z" fill="#000000" stroke="#000000" stroke-width="2"/><path d="M-147.38739,482.88017v-30.03003h776.27628v30.03003z" fill="#000000" stroke="#000000" stroke-width="2"/><path d="M544.8048,15.39175v-27.02702h39.03904v27.02703z" fill="#000000" stroke="#000000" stroke-width="2"/><path d="M-18.25826,-19.14277v-43.54354h506.00601v43.54354z" fill="#000000" stroke="#000000" stroke-width="2"/><path d="M-49.78979,66.44281v-28.52853h12.01201v28.52853z" fill="#000000" stroke="#000000" stroke-width="2"/><path d="M-12.25225,165.5419v-15.01502h25.52553v15.01502z" fill="#000000" stroke="#000000" stroke-width="2"/><path d="M104.86486,234.61098v-7.50751h15.01502v7.50751z" fill="#000000" stroke="#000000" stroke-width="2"/><path d="M224.98498,396.77314v-172.67267h22.52252v172.67267z" fill="#000000" stroke="#000000" stroke-width="2"/><path d="M280.66566,188.06442v-12.01201h46.2963v12.01201z" fill="#000000" stroke="#000000" stroke-width="2"/><path d="M348.10811,108.48485v-51.05105h64.56456v51.05105z" fill="#000000" stroke="#000000" stroke-width="2"/><path d="M468.22823,134.01038v-30.03003h46.54655v30.03003z" fill="#000000" stroke="#000000" stroke-width="2"/><path d="M-31.77177,298.42479v-12.01201h33.03304v12.01201z" fill="#000000" stroke="none" stroke-width="0"/><path d="M13.27327,242.41044v-24.60794h24.02403v24.60794z" fill="#000000" stroke="none" stroke-width="0"/><path d="M-1.74174,429.80617v-108.10811h24.02403v108.10811z" fill="none" stroke="none" stroke-width="0"/><path d="M545.55556,-12.19219v-250.75075h150.15015v250.75075z" fill="#549a10" stroke="none" stroke-width="0"/></g></g></svg>