<svg version="1.1" xmlns="http://www.w3.org/2000/svg" xmlns:xlink="http://www.w3.org/1999/xlink" width="711.71171" height="672.86942" viewBox="0,0,711.71171,672.86942"><defs><linearGradient x1="430.13513" y1="-100.24505" x2="491.69669" y2="-100.24505" gradientUnits="userSpaceOnUse" id="color-1"><stop offset="0" stop-color="#9966ff"/><stop offset="1" stop-color="#66ebff"/></linearGradient><linearGradient x1="329.53453" y1="16.82628" x2="391.09609" y2="16.82628" gradientUnits="userSpaceOnUse" id="color-2"><stop offset="0" stop-color="#9966ff"/><stop offset="1" stop-color="#66ebff"/></linearGradient><linearGradient x1="251.45646" y1="76.13559" x2="298.003" y2="76.13559" gradientUnits="userSpaceOnUse" id="color-3"><stop offset="0" stop-color="#9966ff"/><stop offset="1" stop-color="#66ebff"/></linearGradient><linearGradient x1="93.7988" y1="184.24366" x2="173.37838" y2="184.24366" gradientUnits="userSpaceOnUse" id="color-4"><stop offset="0" stop-color="#9966ff"/><stop offset="1" stop-color="#66ebff"/></linearGradient><linearGradient x1="-51.84685" y1="297.60706" x2="27.73273" y2="297.60706" gradientUnits="userSpaceOnUse" id="color-5"><stop offset="0" stop-color="#9966ff"/><stop offset="1" stop-color="#66ebff"/></linearGradient><linearGradient x1="562.26726" y1="-56.74729" x2="659.86487" y2="-56.74729" gradientUnits="userSpaceOnUse" id="color-6"><stop offset="0" stop-color="#9966ff"/><stop offset="1" stop-color="#66ebff"/></linearGradient></defs><g transform="translate(51.84685,167.3044)"><g data-paper-data="{&quot;isPaintingLayer&quot;:true}" fill-rule="nonzero" stroke-linecap="butt" stroke-linejoin="miter" stroke-miterlimit="10" stroke-dasharray="" stroke-dashoffset="0" style="mix-blend-mode: normal"><path d="M520.03003,336.90691v34.53453h-252.4841c0.05244,-0.65872 0.08639,-1.34591 0.103,-2.05716c0.83675,-1.46188 1.31504,-3.15528 1.31504,-4.9604c0,-0.25254 -0.00937,-0.5029 -0.02776,-0.75075c0.01839,-0.24784 0.02776,-0.49821 0.02776,-0.75075v-4.5045h-0.20935l0.20198,-0.38376c-0.04071,-0.47796 0.40346,-12.89663 -1.67712,-21.1272z" fill="#000000" stroke="#000000" stroke-width="2"/><path d="M-47.53754,371.44144v-34.53453h173.39086c0.00006,0.66487 0.00881,1.33053 -0.01248,1.99144c-0.03991,1.23873 0.65882,2.5325 0.26751,3.70848c-0.35335,1.06191 -1.26831,1.90841 -1.5015,3.003c-0.36862,1.73026 -0.17834,3.53369 -0.26751,5.30054c0,4.00401 0,8.008 0,12.01201c0,1.23937 0.65881,2.5325 0.26751,3.70848c-0.35335,1.06191 -1.26831,1.90842 -1.5015,3.00301c-0.12489,0.58619 -0.22122,1.19021 -0.29441,1.80758z" fill="#000000" stroke="#000000" stroke-width="2"/><path d="" fill="#000000" stroke="#000000" stroke-width="2"/><path d="" fill="#000000" stroke="#000000" stroke-width="2"/><path d="" fill="#000000" stroke="#000000" stroke-width="2"/><path d="" fill="#000000" stroke="#000000" stroke-width="2"/><path d="" fill="#000000" stroke="#000000" stroke-width="2"/><path d="M-1.74174,401.52044v-79.82237h24.02403v70.52414" fill="none" stroke="none" stroke-width="0"/><path d="M430.13513,-33.18555v-134.11885h61.56156v134.11885z" fill="url(#color-1)" stroke="none" stroke-width="0"/><path d="M329.53453,22.83229v-12.01201h61.56156v12.01201z" fill="url(#color-2)" stroke="none" stroke-width="0"/><path d="M251.45646,79.88935v-7.50751h46.54655v7.50751z" fill="url(#color-3)" stroke="none" stroke-width="0"/><path d="M93.7988,246.36831v-124.2492h79.57958v124.2492z" fill="url(#color-4)" stroke="none" stroke-width="0"/><path d="M-51.84685,305.11457v-15.01502h79.57958v15.01502z" fill="url(#color-5)" stroke="none" stroke-width="0"/><path d="M562.26726,-51.49203v-10.51051h97.5976v10.51051z" fill="url(#color-6)" stroke="none" stroke-width="0"/><path d="M126.83183,332.05576v-12.67693h0.51051" fill="none" stroke="none" stroke-width="0"/><path d="M166.38138,319.37883h-5.94872" fill="none" stroke="none" stroke-width="0"/><path d="M203.81739,319.37883h-2.06945" fill="none" stroke="none" stroke-width="0"/><path d="M230.96529,319.37883h-4.43432" fill="none" stroke="none" stroke-width="0"/><path d="M233.43844,383.52456v1.92034h-44.5128" fill="none" stroke="none" stroke-width="0"/><path d="M140.34535,505.56502v-21.02102h87.08709v21.02102z" fill="#9966ff" stroke="none" stroke-width="0"/><path d="M264.96997,484.544v-117.11712h27.02703v117.11712z" fill="#9966ff" stroke="none" stroke-width="0"/><path d="M518.07057,370.28638v-421.92192h106.60661v421.92192z" fill="#9966ff" stroke="none" stroke-width="0"/></g></g></svg>