<svg version="1.1" xmlns="http://www.w3.org/2000/svg" xmlns:xlink="http://www.w3.org/1999/xlink" width="673.13064" height="645.34817" viewBox="0,0,673.13064,645.34817"><defs><linearGradient x1="428.63363" y1="-46.23678" x2="490.19519" y2="-46.23678" gradientUnits="userSpaceOnUse" id="color-1"><stop offset="0" stop-color="#9966ff"/><stop offset="1" stop-color="#66ebff"/></linearGradient><linearGradient x1="329.53453" y1="16.82628" x2="391.09609" y2="16.82628" gradientUnits="userSpaceOnUse" id="color-2"><stop offset="0" stop-color="#9966ff"/><stop offset="1" stop-color="#66ebff"/></linearGradient><linearGradient x1="251.45646" y1="76.13559" x2="298.003" y2="76.13559" gradientUnits="userSpaceOnUse" id="color-3"><stop offset="0" stop-color="#9966ff"/><stop offset="1" stop-color="#66ebff"/></linearGradient><linearGradient x1="93.7988" y1="103.16262" x2="173.37838" y2="103.16262" gradientUnits="userSpaceOnUse" id="color-4"><stop offset="0" stop-color="#9966ff"/><stop offset="1" stop-color="#66ebff"/></linearGradient><linearGradient x1="-51.84685" y1="297.60706" x2="8.21321" y2="297.60706" gradientUnits="userSpaceOnUse" id="color-5"><stop offset="0" stop-color="#9966ff"/><stop offset="1" stop-color="#66ebff"/></linearGradient></defs><g transform="translate(67.51502,243.82773)"><g data-paper-data="{&quot;isPaintingLayer&quot;:true}" fill-rule="nonzero" stroke-linecap="butt" stroke-linejoin="miter" stroke-miterlimit="10" stroke-dasharray="" stroke-dashoffset="0" style="mix-blend-mode: normal"><path d="M-47.53754,371.44144v-34.53453h417.41742v34.53453z" fill="#000000" stroke="#000000" stroke-width="2"/><path d="" fill="#000000" stroke="#000000" stroke-width="2"/><path d="" fill="#000000" stroke="#000000" stroke-width="2"/><path d="" fill="#000000" stroke="#000000" stroke-width="2"/><path d="" fill="#000000" stroke="#000000" stroke-width="2"/><path d="" fill="#000000" stroke="#000000" stroke-width="2"/><path d="M-1.74174,401.52044v-79.82237h24.02403v70.52414" fill="none" stroke="none" stroke-width="0"/><path d="M92.1021,290.55931v-4.5045h7.50751v4.5045z" fill="#000000" stroke="none" stroke-width="0"/><path d="M141.65165,245.51428v-4.5045h9.00901v4.5045z" fill="#000000" stroke="none" stroke-width="0"/><path d="M182.19219,225.99476v-6.006h10.51051v6.006z" fill="#000000" stroke="none" stroke-width="0"/><path d="M207.71772,197.46623v-10.51051h6.006v10.51051z" fill="#000000" stroke="none" stroke-width="0"/><path d="M239.24925,146.41518v-3.00301h138.13814v3.00301z" fill="#000000" stroke="none" stroke-width="0"/><path d="M392.4024,101.37013v-7.5075h6.00601v7.5075z" fill="#000000" stroke="none" stroke-width="0"/><path d="M425.43544,63.8326v-1.50151h7.50751v1.50151z" fill="#000000" stroke="none" stroke-width="0"/><path d="M462.97298,48.81758v-19.51952h7.5075v19.51952z" fill="#000000" stroke="none" stroke-width="0"/><path d="M480.99099,9.77854v-7.50751h124.62463v7.50751z" fill="#000000" stroke="none" stroke-width="0"/><path d="M428.63363,-41.73227v-9.00901h61.56156v9.00901z" fill="url(#color-1)" stroke="none" stroke-width="0"/><path d="M329.53453,22.83229v-12.01201h61.56156v12.01201z" fill="url(#color-2)" stroke="none" stroke-width="0"/><path d="M251.45646,79.88935v-7.50751h46.54655v7.50751z" fill="url(#color-3)" stroke="none" stroke-width="0"/><path d="M93.7988,109.91938v-13.51351h79.57958v13.51351z" fill="url(#color-4)" stroke="none" stroke-width="0"/><path d="M-51.84685,305.11457v-15.01502h60.06006v15.01502z" fill="url(#color-5)" stroke="none" stroke-width="0"/><path d="M369.42192,372.41961v-270.6036h139.63964v270.6036z" fill="#9966ff" stroke="none" stroke-width="0"/><path d="M-67.51502,371.78789v-615.61562h18.01802v615.61562z" fill="#549a10" stroke="none" stroke-width="0"/></g></g></svg>