<svg version="1.1" xmlns="http://www.w3.org/2000/svg" xmlns:xlink="http://www.w3.org/1999/xlink" width="974.47447" height="1136.83558" viewBox="0,0,974.47447,1136.83558"><defs><linearGradient x1="-175.16514" y1="632.15093" x2="665.67571" y2="632.15093" gradientUnits="userSpaceOnUse" id="color-1"><stop offset="0" stop-color="#549a10"/><stop offset="1" stop-color="#9a3a10"/></linearGradient><linearGradient x1="-175.16514" y1="632.15093" x2="665.67571" y2="632.15093" gradientUnits="userSpaceOnUse" id="color-2"><stop offset="0" stop-color="#549a10"/><stop offset="1" stop-color="#9a3a10"/></linearGradient><linearGradient x1="-175.16514" y1="632.15093" x2="665.67571" y2="632.15093" gradientUnits="userSpaceOnUse" id="color-3"><stop offset="0" stop-color="#549a10"/><stop offset="1" stop-color="#9a3a10"/></linearGradient><linearGradient x1="-163.15312" y1="394.00087" x2="629.63965" y2="394.00087" gradientUnits="userSpaceOnUse" id="color-4"><stop offset="0" stop-color="#9a3a10"/><stop offset="1" stop-color="#549a10"/></linearGradient><linearGradient x1="-163.15312" y1="394.00087" x2="629.63965" y2="394.00087" gradientUnits="userSpaceOnUse" id="color-5"><stop offset="0" stop-color="#9a3a10"/><stop offset="1" stop-color="#549a10"/></linearGradient><linearGradient x1="-163.15312" y1="394.00087" x2="629.63965" y2="394.00087" gradientUnits="userSpaceOnUse" id="color-6"><stop offset="0" stop-color="#9a3a10"/><stop offset="1" stop-color="#549a10"/></linearGradient><linearGradient x1="589.09912" y1="266.33636" x2="799.30933" y2="266.33636" gradientUnits="userSpaceOnUse" id="color-7"><stop offset="0" stop-color="#9a3a10"/><stop offset="1" stop-color="#549a10"/></linearGradient><linearGradient x1="589.09912" y1="266.33636" x2="799.30933" y2="266.33636" gradientUnits="userSpaceOnUse" id="color-8"><stop offset="0" stop-color="#9a3a10"/><stop offset="1" stop-color="#549a10"/></linearGradient><linearGradient x1="617.62765" y1="-234.41439" x2="751.26128" y2="-234.41439" gradientUnits="userSpaceOnUse" id="color-9"><stop offset="0" stop-color="#9a3a10"/><stop offset="1" stop-color="#549a10"/></linearGradient><linearGradient x1="617.62765" y1="-234.41439" x2="751.26128" y2="-234.41439" gradientUnits="userSpaceOnUse" id="color-10"><stop offset="0" stop-color="#9a3a10"/><stop offset="1" stop-color="#549a10"/></linearGradient><linearGradient x1="617.62765" y1="-280.21019" x2="649.15918" y2="-280.21019" gradientUnits="userSpaceOnUse" id="color-11"><stop offset="0" stop-color="#9a3a10"/><stop offset="1" stop-color="#549a10"/></linearGradient><linearGradient x1="617.62765" y1="-280.21019" x2="649.15918" y2="-280.21019" gradientUnits="userSpaceOnUse" id="color-12"><stop offset="0" stop-color="#9a3a10"/><stop offset="1" stop-color="#549a10"/></linearGradient><linearGradient x1="607.11713" y1="-323.00299" x2="715.22525" y2="-323.00299" gradientUnits="userSpaceOnUse" id="color-13"><stop offset="0" stop-color="#9a3a10"/><stop offset="1" stop-color="#549a10"/></linearGradient></defs><g transform="translate(175.16515,483.66365)"><g data-paper-data="{&quot;isPaintingLayer&quot;:true}" fill-rule="nonzero" stroke="none" stroke-linecap="butt" stroke-linejoin="miter" stroke-miterlimit="10" stroke-dasharray="" stroke-dashoffset="0" style="mix-blend-mode: normal"><path d="M-175.16514,653.17193v-42.04204h596.91036l-5.86633,42.04204z" fill="url(#color-1)" stroke-width="0"/><path d="M534.28584,653.17193l5.4499,-42.04204h35.25043c0.63972,7.00964 1.73681,13.88771 2.62647,20.89671c0.72575,5.71768 -0.25053,9.71594 3.125,15.42836c1.30926,2.21566 2.67577,4.11586 4.16491,5.71697z" fill="url(#color-2)" stroke-width="0"/><path d="M665.67567,611.12988v42.04204h-45.59627c5.61503,-5.91505 7.75849,-14.97576 7.53321,-24.22298c-0.07605,-3.12159 -1.2432,-6.02133 -1.5015,-9.08365c-0.24837,-2.94457 -0.5062,-5.85253 -0.79388,-8.73542z" fill="url(#color-3)" stroke-width="0"/><path d="M-163.15312,499.2793v-210.55687h586.04417l-1.40001,26.60025l0.03102,0.65826l-0.06557,0.65571v5.72826l-1.49533,67.28989l0.02158,0.27799l-0.02775,0.27744v5.45439l-0.18885,1.08754l0.41988,1.77434l0.1596,1.59597l0.85096,2.67445l0.6463,2.73114l0.68427,1.45065l0.55284,1.73751l0.72148,0.8354l0.65802,1.09672v39.62194l0.10982,1.09815l-0.00216,0.02038l0.14357,1.39365l0.1394,1.39406l0.00621,0.01954l0.11309,1.09782l6.70988,32.71065l-0.604,11.27476z" fill="url(#color-4)" stroke-width="0"/><path d="M548.89483,499.2793l-5.4468,-55.55735l-10.23582,-154.99952h51.48852c-10.28703,68.23868 -20.91051,136.43527 -29.40766,204.9153c-0.2226,1.79396 -0.3004,3.68512 -0.26899,5.64157z" fill="url(#color-5)" stroke-width="0"/><path d="M629.63965,499.2793h-24.25923c-0.11306,-0.81038 -0.15642,-1.67468 -0.06243,-2.64395c4.87155,-50.24046 15.71059,-101.23647 24.32166,-151.73912z" fill="url(#color-6)" stroke-width="0"/><path d="M799.30933,-120.30028v773.27328h-179.04345c5.47605,-5.9181 7.56952,-14.87988 7.34676,-24.02403c-0.07605,-3.12159 -1.2432,-6.02133 -1.5015,-9.08365c-1.2708,-15.06589 -2.78899,-29.17356 -7.28892,-43.86709c-1.23993,-4.04874 -2.82234,-7.53425 -4.63362,-11.33057c-1.05939,-2.22041 -0.58849,-7.05188 -1.37239,-9.69045c-3.14556,-10.5878 -3.08641,-11.31527 -3.22159,-23.62584c-0.09336,-8.50198 -2.72028,-23.34624 -3.19606,-27.12489c-0.3207,-2.54701 -1.3751,-4.55358 -1.08056,-7.59113c7.98604,-82.3603 32.00898,-166.75107 35.96391,-247.67022c0.10961,-2.2427 -1.36722,-4.62625 -1.07241,-6.8366c10.1266,-75.92358 12.81574,-88.87366 26.13909,-173.86318c3.7903,-24.17826 6.16177,-48.55792 9.11903,-72.85215c0.86528,-7.1084 -1.24929,-14.32676 -1.34046,-21.43893c-0.41715,-32.54261 0.02859,-47.92475 -3.12391,-74.51281c-0.17908,-1.5104 -0.49769,-3.59666 -0.851,-5.46183c1.77641,-1.86557 3.29063,-4.00489 4.3706,-6.12258c1.30128,-2.55166 2.79916,-5.29911 4.25355,-8.17732z" fill="url(#color-7)" stroke-width="0"/><path d="M599.60691,-120.30028c-1.36637,23.31027 -4.30635,46.53683 -5.38174,69.86564c-0.06358,0.727 -0.09603,1.46292 -0.09603,2.20643c0,3.52479 0.72946,6.87922 2.04566,9.92054c1.63104,6.79875 7.61202,11.44119 14.57479,13.64054c2.60276,0.92573 5.40418,1.43242 8.32308,1.43887c1.77206,0.06555 3.5248,-0.02283 5.20838,-0.26937c0.33592,4.52183 1.24106,15.19025 1.1574,16.0312c-5.74917,57.78749 -16.02514,115.88719 -25.00024,173.075c-1.46833,9.35594 -3.21147,18.89223 -4.87678,28.48986c-1.80041,-1.73953 -3.93567,-3.16626 -6.46233,-4.19797v-306.39271c1.82785,-0.70638 3.55189,-1.62142 5.1429,-2.71589c0.70079,-0.31568 1.40509,-0.68112 2.11027,-1.09213z" fill="url(#color-8)" stroke-width="0"/><path d="M751.26128,-405.58556v342.34234h-77.60739c-0.31096,-12.11401 -0.96866,-23.10975 -2.65062,-37.29532c-0.17908,-1.5104 -0.49769,-3.59667 -0.851,-5.46184c1.7764,-1.86556 3.29062,-4.00488 4.37059,-6.12256c5.02922,-9.86176 12.99518,-22.64816 10.03702,-34.6042c-2.60573,-10.5316 -10.15301,-20.03353 -19.39588,-25.74443c0.01209,-6.11468 -1.01631,-10.79313 -1.51533,-17.17296c-0.23307,-2.97982 0.43226,-5.99166 0.13485,-8.96575c-0.7404,-7.40399 -5.20223,-11.68398 -7.96875,-18.04703c-1.8089,-4.1605 -2.86996,-8.33058 -4.47969,-12.21245c0.02287,-0.26199 0.04593,-0.52394 0.0692,-0.78586c6.05462,-7.18154 12.12521,-14.34957 18.21883,-21.49798c0.60897,-0.71438 1.63838,-1.04182 2.13133,-1.84068c2.92476,-4.73979 4.13472,-9.91351 3.90774,-14.9239c4.59097,-3.90963 7.7459,-9.12771 9.33798,-15.55489c0.18385,-0.74219 -0.38301,-1.48707 -0.45501,-2.2483c-0.50752,-5.36585 0.61239,-11.07159 -0.08909,-16.51893c-2.44328,-18.97321 -5.13715,-37.91418 -7.48674,-56.89922c-1.91545,-15.47719 -3.79547,-30.95892 -5.63,-46.44602z" fill="url(#color-9)" stroke-width="0"/><path d="" fill="url(#color-10)" stroke-width="0"/><path d="M617.62765,-470.15013h7.98418c-2.2343,1.82193 -4.11168,4.03902 -5.56147,6.56009c-0.80692,0.00474 -1.61563,0.04503 -2.4227,0.11407z" fill="url(#color-11)" stroke-width="0"/><path d="" fill="url(#color-12)" stroke-width="0"/><path d="M607.11713,-483.66364h108.10811v321.32133h-38.60897c-3.7876,-4.69364 -8.52124,-8.64611 -13.67979,-11.41407c-3.96702,-2.12862 -9.70446,-3.62734 -15.53216,-4.79754c-0.1268,-0.26566 -0.25819,-0.52999 -0.39418,-0.79291c-1.40817,-2.72245 -4.36326,-4.88024 -6.24258,-7.22825c-4.55722,-5.69377 -7.91413,-10.09436 -14.1344,-13.55374c14.26332,-17.06427 28.56209,-34.09948 42.98994,-51.02478c0.60897,-0.71438 1.63838,-1.04182 2.13133,-1.84068c9.917,-16.07124 0.1191,-37.13131 -18.56187,-39.89775c-5.1183,-0.75796 -11.47152,0.12527 -17.65578,2.18118c5.28604,-18.24724 9.10075,-39.16405 3.20148,-53.91378c-1.14129,-2.85351 -4.29237,-7.21282 -6.02288,-9.348c-0.71146,-0.87782 -1.98072,-1.24878 -2.56547,-2.21564c-0.26651,-0.44065 0.97506,0.35228 1.48442,0.4282c0.89498,0.13338 1.80946,0.0853 2.70747,0.19651c1.64472,0.20369 4.40039,0.9355 6.28715,0.45632c10.8787,-2.76285 11.7992,-4.3519 18.87889,-13.77247c1.22731,-1.63311 1.33884,-6.44737 1.49297,-7.37701c0.40589,-2.44829 1.18824,-4.83231 1.47681,-7.29718c0.29247,-2.49822 -1.82208,-4.69386 -2.90225,-6.9654c-2.26896,-4.7715 -5.74958,-8.52728 -10.15284,-11.26266c2.3482,-3.04523 4.71538,-6.07299 7.12748,-9.05982c5.01105,-6.20503 7.23262,-15.38694 5.11599,-23.02193c-3.00874,-10.85294 -17.1217,-17.66527 -25.09317,-23.17203c-2.97731,-2.05675 -6.74743,-4.72265 -10.39388,-5.771c-5.56501,-1.59994 -11.67318,-0.46794 -17.06349,0.8815c-0.66598,0.16672 -1.33209,0.33292 -1.99833,0.49861z" fill="url(#color-13)" stroke-width="0"/><path d="M559.732,-76.28262c0.16921,-0.36519 0.46621,-0.72798 0.95335,-1.05273c2.08012,-1.38675 3.46688,0.69338 3.46688,0.69338l2.98404,4.47606c0.2768,0.40239 0.43883,0.88987 0.43883,1.41519c0,1.38071 -1.11929,2.5 -2.5,2.5c-0.41989,0 -0.81561,-0.10352 -1.16302,-0.28643l-3.02275,-1.51138c-3.5607,-1.78035 -6.79624,-4.31926 -10.82924,-4.2082c-0.55173,0 -6.18073,0.01299 -6.47878,-0.04511c-2.64549,-0.51569 -4.86672,-2.46377 -7.5075,-3.003c-2.29755,-0.46914 -4.68978,0.04511 -7.03474,0.04511c-5.8841,0 -12.66113,0.93702 -18.44681,-0.03705c-1.63682,-0.27558 -3.07163,-1.30829 -4.69228,-1.66693c-1.52423,-0.33729 -3.11087,-0.26584 -4.66585,-0.40394c-3.21439,-0.28548 -6.4134,-0.97464 -9.63951,-0.89682c-4.091,0.09868 -7.98024,1.57945 -12.14744,1.50288c-6.33803,-0.11646 -12.5735,-1.8727 -18.77228,-3.11246c-4.72997,-0.94599 -9.66966,-2.40113 -14.46476,-2.90536c-1.60001,-0.16825 -3.24891,0.2638 -4.8262,-0.05322c-1.19536,-0.24026 -2.13463,-1.21822 -3.29902,-1.57986c-9.23642,-2.86871 -19.62273,-3.79297 -29.12678,-5.64098c-11.05481,-2.14955 -22.02657,-3.71854 -32.49919,-7.90759c0,0 -2.32119,-0.92848 -1.39272,-3.24967c0.92847,-2.32119 3.24967,-1.39272 3.24967,-1.39272c10.16921,4.06768 20.85694,5.55364 31.59659,7.6419c9.73598,1.89311 20.29841,2.89006 29.77013,5.81119c1.01475,0.31296 1.79586,1.2415 2.8374,1.4485c1.36763,0.27182 2.79581,-0.1965 4.18281,-0.05322c4.95601,0.51195 10.06413,2.00042 14.95265,2.97813c4.78663,0.95732 9.6678,2.27736 14.50687,2.90988c5.30183,0.69301 10.04853,-1.25959 15.24609,-1.39394c0.22325,-0.00577 9.86534,0.87553 10.27837,0.91389c1.76466,0.1639 3.56134,0.12459 5.29308,0.50142c1.54892,0.33704 2.90864,1.34913 4.46996,1.62301c8.22943,1.44357 17.36018,-1.65066 25.5695,0.00806c2.64189,0.53381 4.86247,2.48507 7.50751,3.003c1.8101,0.35444 3.68876,-0.0451 5.53323,-0.0451c3.72253,0.06959 6.61986,1.3905 9.67192,2.97411z" fill="#9a3a10" stroke-width="0.5"/><path d="M394.86063,-191.56415c-0.43076,0.03522 -0.23057,0.84865 -0.47022,1.20832c-0.92413,1.387 -2,2.66666 -3,4c-3.39015,4.52021 -8.14915,9.02707 -9.44112,14.57222c-1.1213,4.48521 -3.10845,9.51908 -3.56903,14.11357c-0.70249,7.00772 2.1857,14.80294 4.30221,21.32527c0.45202,1.39298 0.55859,2.93892 1.31811,4.19105c1.5025,2.47699 4.2575,3.93031 6.36063,5.92275c3.62977,3.43873 7.25952,6.87744 10.88929,10.31617c4.16187,3.94282 8.11849,8.86857 13.29096,11.39648c0,0 2.23607,1.11803 1.11804,3.3541c-1.11804,2.23607 -3.3541,1.11803 -3.3541,1.11803c-5.66621,-2.88482 -9.89851,-7.88559 -14.49362,-12.23885c-3.62977,-3.43873 -7.25952,-6.87744 -10.88929,-10.31617c-0.23127,-0.2191 -6.93673,-6.53661 -7.13927,-6.86663c-0.97771,-1.59315 -1.24056,-3.52669 -1.84417,-5.29578c-2.41787,-7.08651 -5.2649,-15.60961 -4.54753,-23.24196c0.45871,-4.88033 2.51623,-10.22746 3.70704,-14.9907c1.67597,-6.37344 6.37219,-11.13335 10.29183,-16.35954c1,-1.33334 1.94795,-2.70734 3,-4c0.80213,-0.98559 1.32672,-2.50881 2.5568,-2.82772c2.02745,-0.52562 4.17909,0.30398 6.26001,0.54193c0.21189,0.02423 0.42366,0.05068 0.63526,0.07933c-1.17139,1.22934 -2.18679,2.70605 -3.05239,4.34742c-0.63542,-0.21876 -1.27204,-0.40304 -1.92947,-0.34928z" fill="#9a3a10" stroke-width="0.5"/><path d="" fill="#9a3a10" stroke-width="0.5"/><path d="M390.04463,-424.20009c-0.71803,0.195 -2.08397,0.30617 -2.88129,-1.28847c-1.11804,-2.23607 1.11804,-3.3541 1.11804,-3.3541l5.43536,-1.39206c2.34301,10.13671 0.31104,20.4565 1.23138,30.74839c0.44242,4.94747 2.17813,9.70575 2.93313,14.57502c0.4427,2.85509 -0.11593,5.80209 0.28883,8.6628c0.23543,1.66389 1.0056,3.22504 1.21811,4.89201c0.31246,2.45101 -0.49739,4.98951 -0.01355,7.41251c0.59372,2.97328 1.9482,5.74251 2.90699,8.6189c1.33733,4.01201 2.50061,7.96633 4.40123,11.74928c4.34971,8.69941 9.21845,17.12239 14.78021,25.12474c5.27136,7.58452 11.68288,14.59776 17.45468,21.8125c8.84403,11.05504 17.46414,22.22204 25.94388,33.55913c7.94936,7.92307 15.69026,16.11786 23.8401,23.83339c2.8714,2.71839 5.82923,5.33255 8.81909,7.90464c1.68837,3.67418 3.45566,7.37172 5.30458,11.02723c-5.90384,-5.00659 -11.89202,-9.93754 -17.53311,-15.27459c-8.27882,-7.8326 -16.16098,-16.14328 -24.20794,-24.21466c-7.54414,-10.03343 -15.10542,-20.00475 -22.94748,-29.80732c-6.86309,-8.57887 -14.46494,-16.91863 -20.74106,-25.93216c-5.71688,-8.21037 -10.71949,-16.86563 -15.18509,-25.79683c-3.20814,-6.44435 -6.40682,-14.70831 -7.77152,-21.80334c-0.47866,-2.48856 0.31792,-5.0901 -0.01355,-7.60251c-0.2162,-1.63867 -0.98018,-3.17221 -1.20725,-4.80941c-0.39691,-2.86181 0.1638,-5.80927 -0.28882,-8.6628c-1.08492,-6.83976 -2.95718,-13.02224 -2.99162,-20.03577c-0.02676,-5.44907 -0.03555,-10.8979 -0.03555,-16.34702c0,-1.12023 -0.10837,-2.46957 0.14222,-3.59951z" fill="#549a10" stroke-width="0.5"/><path d="M596.10361,-85.76575c0,0 0,2.5 -2.5,2.5c-2.5,0 -2.5,-2.5 -2.5,-2.5c0,-15.52725 0,-31.0545 0,-46.58175c1.6426,-0.09102 3.33829,-0.26625 5,-0.51617c0,15.69931 0,31.39862 0,47.09792z" fill="#549a10" stroke-width="0.5"/><path d="M523.03304,-435.1126c2.5,0 2.5,2.5 2.5,2.5l-0.26393,0.38347c2.04759,4.26346 1.83769,7.74136 2.30455,12.45015c0.82555,8.32673 1.43657,16.64738 1.99867,24.99571c0.66755,9.91447 0.93487,19.95282 2.00643,29.83055c2.65147,24.44154 7.31615,48.83604 10.89771,73.16276c4.08009,14.37895 8.13462,28.76517 12.19946,43.14844c2.25334,7.97337 5.36964,16.15277 6.85449,24.29965c1.16212,6.37619 1.03548,13.30062 1.5328,19.76575c0,0 0.19174,2.49264 -2.30089,2.68438c-2.49264,0.19174 -2.68438,-2.30089 -2.68438,-2.30089c-0.4844,-6.29715 -0.33566,-13.06457 -1.4702,-19.27329c-1.45837,-7.98082 -4.53536,-16.0029 -6.74336,-23.81582c-4.09387,-14.48599 -8.19722,-28.96935 -12.27667,-43.45941c-3.65614,-24.48392 -8.31031,-49.06482 -10.97979,-73.67233c-1.07893,-9.94571 -1.35216,-20.05134 -2.0243,-30.03391c-0.5586,-8.29631 -1.16877,-16.56428 -1.98567,-24.83936c-0.38827,-3.93313 0.01724,-7.26321 -1.80097,-10.70633l-0.26393,-2.61954c0,0 0,-2.5 2.5,-2.5z" fill="#549a10" stroke-width="0.5"/></g></g></svg>