<svg version="1.1" xmlns="http://www.w3.org/2000/svg" xmlns:xlink="http://www.w3.org/1999/xlink" width="819.81982" height="647.14714" viewBox="0,0,819.81982,647.14714"><g transform="translate(123.39715,79.56081)"><g data-paper-data="{&quot;isPaintingLayer&quot;:true}" fill-rule="nonzero" stroke-linecap="butt" stroke-linejoin="miter" stroke-miterlimit="10" stroke-dasharray="" stroke-dashoffset="0" style="mix-blend-mode: normal"><path d="" fill="#000000" stroke="#000000" stroke-width="2"/><path d="" fill="#000000" stroke="#000000" stroke-width="2"/><path d="" fill="#000000" stroke="#000000" stroke-width="2"/><path d="" fill="#000000" stroke="#000000" stroke-width="2"/><path d="" fill="#000000" stroke="#000000" stroke-width="2"/><path d="M-1.74174,401.52044v-79.82237h24.02403v70.52414" fill="none" stroke="none" stroke-width="0"/><path d="M126.83183,332.05576v-12.67693h0.51051" fill="none" stroke="none" stroke-width="0"/><path d="M160.43266,319.37883h5.94872" fill="none" stroke="none" stroke-width="0"/><path d="M201.74794,319.37883h2.06945" fill="none" stroke="none" stroke-width="0"/><path d="M230.96529,319.37883h-4.43432" fill="none" stroke="none" stroke-width="0"/><path d="M233.43844,383.52456v1.92034h-44.5128" fill="none" stroke="none" stroke-width="0"/><path d="M140.34535,505.56502v-21.02102h87.08709v21.02102z" fill="#9966ff" stroke="none" stroke-width="0"/><path d="M-123.39714,567.58634v-75.07507h746.24625v75.07507z" fill="#9966ff" stroke="none" stroke-width="0"/><path d="M540.26652,506.02478v-585.58559h156.15616v585.58559z" fill="#9966ff" stroke="none" stroke-width="0"/><path d="M490.71697,472.99174v-19.51952h64.56456v19.51952z" fill="#9966ff" stroke="none" stroke-width="0"/><path d="M502.72898,439.95871v-25.52553h61.56156v25.52553z" fill="#9966ff" stroke="none" stroke-width="0"/><path d="M508.73499,391.91066v-43.54354h52.55255v43.54354z" fill="#9966ff" stroke="none" stroke-width="0"/><path d="M519.2455,316.83558v-24.02402h39.03904v24.02402z" fill="#9966ff" stroke="none" stroke-width="0"/><path d="M507.23348,192.21096v-31.53153h79.57958v31.53153z" fill="#9966ff" stroke="none" stroke-width="0"/><path d="M519.2455,106.62538v-36.03604h60.06006v36.03604z" fill="#9966ff" stroke="none" stroke-width="0"/><path d="M528.2545,-11.99324v-18.01802h28.52853v18.01802z" fill="#9966ff" stroke="none" stroke-width="0"/><path d="M462.18844,-34.51577v-39.03904h108.10811v39.03904z" fill="#9966ff" stroke="none" stroke-width="0"/><path d="M615.34159,40.55931v-9.00901h25.52553v9.00901z" fill="#9966ff" stroke="none" stroke-width="0"/><path d="M378.10435,274.79354v-12.01201h69.06907v12.01201z" fill="#9966ff" stroke="none" stroke-width="0"/><path d="M235.46171,37.55631v-12.01201h190.69069v12.01201z" fill="#9966ff" stroke="none" stroke-width="0"/></g></g></svg>